/* XPM */
static char *a2e355e31107427d85f73c27c63c1685bViyBo3knPCEWTQ2[] = {
/* columns rows colors chars-per-pixel */
"64 64 5 1 ",
"  c 2",
". c #86C06C",
"X c #306850",
"o c #071821",
"O c #E0F8CF",
/* pixels */
"                                                                ",
"                                                                ",
"                                                                ",
"                                                                ",
"                                                                ",
"                                                                ",
"                                                                ",
"                                                                ",
"                XXXXooooooooooooooooooooooooXXXX                ",
"                XXXXooooooooooooooooooooooooXXXX                ",
"                XXXXooooooooooooooooooooooooXXXX                ",
"                XXXXooooooooooooooooooooooooXXXX                ",
"            XXXXooooXXXXXXXXXXXXXXXXXXXXXXXXooooXXXX            ",
"            XXXXooooXXXXXXXXXXXXXXXXXXXXXXXXooooXXXX            ",
"            XXXXooooXXXXXXXXXXXXXXXXXXXXXXXXooooXXXX            ",
"            XXXXooooXXXXXXXXXXXXXXXXXXXXXXXXooooXXXX            ",
"            ooooXXXXXXXXXXXXXXXXXXXXXXXXXXXXXXXXooooXXXX        ",
"            ooooXXXXXXXXXXXXXXXXXXXXXXXXXXXXXXXXooooXXXX        ",
"            ooooXXXXXXXXXXXXXXXXXXXXXXXXXXXXXXXXooooXXXX        ",
"            ooooXXXXXXXXXXXXXXXXXXXXXXXXXXXXXXXXooooXXXX        ",
"            ooooXXXX....OOOOXXXXXXXXOOOO....ooooOOOOoooo        ",
"            ooooXXXX....OOOOXXXXXXXXOOOO....ooooOOOOoooo        ",
"            ooooXXXX....OOOOXXXXXXXXOOOO....ooooOOOOoooo        ",
"            ooooXXXX....OOOOXXXXXXXXOOOO....ooooOOOOoooo        ",
"            ooooXXXXOOOOOOOOOOOOOOOOOOOOOOOOooooOOOOoooo        ",
"            ooooXXXXOOOOOOOOOOOOOOOOOOOOOOOOooooOOOOoooo        ",
"            ooooXXXXOOOOOOOOOOOOOOOOOOOOOOOOooooOOOOoooo        ",
"            ooooXXXXOOOOOOOOOOOOOOOOOOOOOOOOooooOOOOoooo        ",
"            ooooOOOOOOOOooooOOOOOOOOooooOOOOooooOOOOoooo        ",
"            ooooOOOOOOOOooooOOOOOOOOooooOOOOooooOOOOoooo        ",
"            ooooOOOOOOOOooooOOOOOOOOooooOOOOooooOOOOoooo        ",
"            ooooOOOOOOOOooooOOOOOOOOooooOOOOooooOOOOoooo        ",
"            ooooXXXXOOOOooooOOOOOOOOooooOOOOooooOOOOoooo        ",
"            ooooXXXXOOOOooooOOOOOOOOooooOOOOooooOOOOoooo        ",
"            ooooXXXXOOOOooooOOOOOOOOooooOOOOooooOOOOoooo        ",
"            ooooXXXXOOOOooooOOOOOOOOooooOOOOooooOOOOoooo        ",
"    XXXXooooooooooooXXXXOOOOOOOOOOOOOOOO....ooooOOOOoooo        ",
"    XXXXooooooooooooXXXXOOOOOOOOOOOOOOOO....ooooOOOOoooo        ",
"    XXXXooooooooooooXXXXOOOOOOOOOOOOOOOO....ooooOOOOoooo        ",
"    XXXXooooooooooooXXXXOOOOOOOOOOOOOOOO....ooooOOOOoooo        ",
"    oooo....OOOO....oooo................XXXXoooo....ooooXXXX    ",
"    oooo....OOOO....oooo................XXXXoooo....ooooXXXX    ",
"    oooo....OOOO....oooo................XXXXoooo....ooooXXXX    ",
"    oooo....OOOO....oooo................XXXXoooo....ooooXXXX    ",
"    ooooOOOOOOOOOOOOoooo................ooooOOOOOOOOOOOOoooo    ",
"    ooooOOOOOOOOOOOOoooo................ooooOOOOOOOOOOOOoooo    ",
"    ooooOOOOOOOOOOOOoooo................ooooOOOOOOOOOOOOoooo    ",
"    ooooOOOOOOOOOOOOoooo................ooooOOOOOOOOOOOOoooo    ",
"    ooooOOOOOOOOOOOOooooXXXXXXXXXXXXXXXXooooooooXXXXoooooooo    ",
"    ooooOOOOOOOOOOOOooooXXXXXXXXXXXXXXXXooooooooXXXXoooooooo    ",
"    ooooOOOOOOOOOOOOooooXXXXXXXXXXXXXXXXooooooooXXXXoooooooo    ",
"    ooooOOOOOOOOOOOOooooXXXXXXXXXXXXXXXXooooooooXXXXoooooooo    ",
"    oooo....OOOO....ooooXXXXooooooooXXXXXXXXoooooooooooo        ",
"    oooo....OOOO....ooooXXXXooooooooXXXXXXXXoooooooooooo        ",
"    oooo....OOOO....ooooXXXXooooooooXXXXXXXXoooooooooooo        ",
"    oooo....OOOO....ooooXXXXooooooooXXXXXXXXoooooooooooo        ",
"        oooooooooooo........oooooooo........oooo....            ",
"        oooooooooooo........oooooooo........oooo....            ",
"        oooooooooooo........oooooooo........oooo....            ",
"        oooooooooooo........oooooooo........oooo....            ",
"                                                                ",
"                                                                ",
"                                                                ",
"                                                                "
};
