/* XPM */
static char *_3a6414f17404fddb5a61ab110e9a386INGlh4XxK0nrIeHj[] = {
/* columns rows colors chars-per-pixel */
"86 35 191 2 ",
"   c 0",
".  c black",
"X  c black",
"o  c black",
"O  c black",
"+  c black",
"@  c black",
"#  c black",
"$  c black",
"%  c black",
"&  c black",
"*  c black",
"=  c black",
"-  c black",
";  c black",
":  c black",
">  c black",
",  c black",
"<  c black",
"1  c black",
"2  c black",
"3  c black",
"4  c black",
"5  c black",
"6  c black",
"7  c black",
"8  c black",
"9  c None",
"0  c black",
"q  c black",
"w  c black",
"e  c #010101",
"r  c gray27",
"t  c #444444",
"y  c #3E3E3E",
"u  c #010101",
"i  c #434343",
"p  c gray1",
"a  c gray29",
"s  c gray66",
"d  c #434343",
"f  c #353535",
"g  c #EAEAEA",
"h  c #EEEEEE",
"j  c #ECECEC",
"k  c gray94",
"l  c #EFEFEF",
"z  c gray93",
"x  c gray95",
"c  c #F1F1F1",
"v  c #E9E9E9",
"b  c gray92",
"n  c black",
"m  c #F3F3F3",
"M  c #F4F4F4",
"N  c gray27",
"B  c gray91",
"V  c #F6F6F6",
"C  c white",
"Z  c #464646",
"A  c gray97",
"S  c #F8F8F8",
"D  c #FBFBFB",
"F  c gray98",
"G  c #E1E1E1",
"H  c gray90",
"J  c #E4E4E4",
"K  c #444444",
"L  c #E7E7E7",
"P  c #373737",
"I  c #111111",
"U  c #E2E2E2",
"Y  c gray88",
"T  c gray99",
"R  c #DDDDDD",
"E  c #DADADA",
"W  c gray5",
"Q  c gainsboro",
"!  c gray8",
"~  c gray1",
"^  c #F9F9F9",
"/  c #AAAAAA",
"(  c gray87",
")  c gray86",
"_  c #FEFEFE",
"`  c gray82",
"'  c gray2",
"]  c gray21",
"[  c #A9A9A9",
"{  c gray89",
"}  c #D5D5D5",
"|  c #1B1B1B",
" . c gray50",
".. c #414141",
"X. c #2D2D2D",
"o. c gray61",
"O. c #434343",
"+. c #7C7C7C",
"@. c #101010",
"#. c gray53",
"$. c gray28",
"%. c gray58",
"&. c gray15",
"*. c #D0D0D0",
"=. c gray76",
"-. c #131313",
";. c #232323",
":. c #494949",
">. c gray85",
",. c gray26",
"<. c #888888",
"1. c #A7A7A7",
"2. c #8B8B8B",
"3. c #DFDFDF",
"4. c #0C0C0C",
"5. c #808080",
"6. c #B4B4B4",
"7. c #FDFDFD",
"8. c #D7D7D7",
"9. c #1D1D1D",
"0. c LightGray",
"q. c #939393",
"w. c #343434",
"e. c #4E4E4E",
"r. c #929292",
"t. c #848484",
"y. c gray49",
"u. c gray55",
"i. c #868686",
"p. c #060606",
"a. c #717171",
"s. c gray39",
"d. c #5F5F5F",
"f. c gray25",
"g. c gray6",
"h. c #010101",
"j. c #656565",
"k. c #BCBCBC",
"l. c #353535",
"z. c #272727",
"x. c #606060",
"c. c gray60",
"v. c #D2D2D2",
"b. c #CBCBCB",
"n. c #BBBBBB",
"m. c #7B7B7B",
"M. c #3E3E3E",
"N. c #8D8D8D",
"B. c gray30",
"V. c gray72",
"C. c gray22",
"Z. c #D8D8D8",
"A. c #797979",
"S. c #323232",
"D. c #181818",
"F. c #3A3A3A",
"G. c gray9",
"H. c #898989",
"J. c gray32",
"K. c #0B0B0B",
"L. c #040404",
"P. c #B7B7B7",
"I. c gray43",
"U. c gray65",
"Y. c gray46",
"T. c #585858",
"R. c gray84",
"E. c #C3C3C3",
"W. c gray29",
"Q. c gray45",
"!. c #909090",
"~. c #505050",
"^. c gray10",
"/. c gray44",
"(. c #E6E6E6",
"). c gray73",
"_. c #222222",
"`. c #CDCDCD",
"'. c #7E7E7E",
"]. c #484848",
"[. c gray70",
"{. c gray34",
"}. c gray63",
"|. c #555555",
" X c gray52",
".X c gray48",
"XX c #838383",
"oX c #A5A5A5",
"OX c gray69",
"+X c #B6B6B6",
"@X c gray83",
/* pixels */
"                                                                                                                                                                            ",
"                                                                                                                                                                            ",
"                                                                                                                                                                            ",
"            # # # # # # # # # # # # # + O ;                           # # # # # # # # # # # # # # # # O                                 . O + # + O .                       ",
"          = o $ $ $ $ $ $ $ $ $ $ $ > , q 0 *                       = o $ $ $ $ $ $ $ $ $ $ $ $ $ $ @ X O                         ; - % 7 o , @ , 3 2 8 * .                 ",
"        = r A _ c l m m M V h h z j H ` / s.K.2 +                 = r g g k h B V M l B g g g B v J g OXX O                     - 7 ' M.<.V.*.v Q k.q.e.W 5 =               ",
"        % N c F k k l x c M k h z z z z j b R.~.@ -               % K v g c h B j M M B v B b g g J k 6.o O                 ; 1 ~ d.} g k b b m V b j z G m.I & O           ",
"        % N l A M c k h h l k h j j z z j g b b Q.> #             % K g z m g b B x M B g J v v j b F +Xo O               . o ;.=.b z l x z b V m j z h k z R :.X .         ",
"        % N l x T c M j l z l z j j z z b v z b b T.& ;           % K g h x g h v A V L g H B L b x T 6.X O             . 3 ,.Q j g j x h z l F x l l z z h z l i -         ",
"        % N c c C ( n n $ $ $ $ $ 9 h.| I.G h z j R I w           % O.g h l 8.n n $ $ $ $ $ $ $ $ $ @ X O               2 S.{ B j B g J t.F.! ~ -.] y.Q h k l H.& +         ",
"        % Z m c _ R n % # # # # # # : % @ ] Y b b v a.1 ;         % K z c l } n % # # # # # # # # # # O               4 ! } h g g b c.! < 8 * : * % 3 g.%.k #.9 w           ",
"        % N c l D 3.@ +                 - $ 5.z l j n.o O         % N k M x @X@ +                                   O < N.g l k g A.n 0 .           . % 5 y & w             ",
"        % N k V V J @ +                   1 ,.h z b R @ +         % N b k S G @ +                                   4 &.L z v z o.n %                   + - +               ",
"        % N l c k U @ +                   1 ..j l k h > #         % N l x x 8.n % # # # # # # # # # # O           . 2 i.v v b ( I 0                                         ",
"        % Z x k h U @ #                 - $ <.x M S G , +         % N A V j Y n n $ $ $ $ $ $ $ $ $ @ X O         # > ` g v b  .< .                                         ",
"        % N m x l U n 8 # # # # # # : % @ P v z b z U.5 O         % N k M S C C M g x C 7.V m D D m j oXX O       * | j b g j w.%                                           ",
"        % N l m k G ' ~ p e e $ $ 9 n ^./.(.m x k k J.6           % Z v m C C m j b B g V C C C M l j / o O       = P g g g h W -                                           ",
"        % N z M x x c D A k S M k h h l l l g h c =.u :           % Z V ^ S M h c m v J l F C C D k L [ o O       4 ..g g v v n :                                           ",
"        % N k V m m k F ^ A M x c c l h h h g j G z.1             % $.T A v k M m k h z k S T _ D x h 1.X O       = P b g v j W -                                           ",
"        % N x V c x h M V ^ m x m V m k l k x E P q               % :.j v m Y n n $ $ $ $ $ $ $ $ $ @ X O         * 9.h b B j l.%                                           ",
"        % N l c m k z c A V m x x x k b g L o.D.& ;               % N h l c ) n % # # # # # # # # # # O           # > 0.H z j +.< .                                         ",
"        % Z k x x ( n n $ $ $ n n  .l h h ) I <                   % K x c h E @ +                                 . & u.B g z Z.@.6                                         ",
"        % Z x x x R n % # # # # X W Q k k h 2.@ O                 % K j g b E @ +                                   4 X.g b g B %.n 4                   + - O               ",
"        % Z M c c 3.@ +         ; 5 j.l l h v X.1                 % N m l h ) @ +                                   + , r.k H v h Y.n 6 .           . % & f 2 *             ",
"        % Z m h k U @ +           * ' b.j h j [.n -               % N F V g ) n % # # # # # # # # # # O               % G.` g j z j !.@.< 8 * : * % 3 4.2.k 5.9 *           ",
"        % Z x z c J @ +             7 B.j l c b {.&               % N l g B E n n $ $ $ $ $ $ $ $ $ @ X O               & ] v l g g H >.+.C.! ~ I P .XE c V h  X& +         ",
"        % Z k l x U @ +             : n ).c c ^ Y 4.=             % $.j B l z j j h S T z v B v v g L / X O             . 3 W.Y B g B j v B v l D C M h b j j k d -         ",
"        % N k c M G @ +               1 P c F h z '.< O           % K A V l h h c z _ S B v v G z L j / o O               O o &.E.j B j v b g v c C F M h h Y ].X .         ",
"        % N k M T J @ +               + > [ m x c B _.%           % O.m k j l x k C D H k { v g g v v [ o O                 ; X L.x.v.g g b j j m 7.D c { XX-.& O           ",
"        = a x x M ( & +                 6 ;.z x k h s % O         = t c l j l k S C V b l g H g j g H 1.X O                     * 2 p.f.#.P.*.U >.`.}.|.I 5 =               ",
"          = o $ > & +                     % q $ $ @ % O             = o $ $ $ $ $ $ $ $ $ $ $ $ $ $ @ X O                         ; - % 7 o , @ , 3 & 6 * .                 ",
"            # # # +                         # # # # O                 # # # # # # # # # # # # # # # # O                                 . O + # + + .                       ",
"                                                                                                                                                                            ",
"                                                                                                                                                                            ",
"                                                                                                                                                                            "
};
